# xmcd
#
# Track frame offsets: 
#        150
#        13645
#        32584
#        42207
#        57038
#        72889
#        91882
#        109467
#        118634
#        126759
#        139118
#        156066
#        183682
#        205069
#        226149
#
# Disc length: 3195 seconds
#
# Revision: 0
# Processed by: cddbd v1.5.2PL0 Copyright (c) Steve Scherf et al.
# Submitted via: ExactAudioCopy v0.95b4
#
DISCID=c60c790f
DTITLE=James Brown - James Brown and Friends
DYEAR=2005
DGENRE=Soul
TTITLE0=Papa's Got a Brand New Bag
TTITLE1=How Do You Stop
TTITLE2=Cold Sweat (Wilson Pickett)
TTITLE3=In the Midnight Hour (Wilson Pickett)
TTITLE4=Out of Sight (Billy Vera)
TTITLE5=When a Man Loves a Woman (Joe Cocker)
TTITLE6=I'll Go Crazy (Joe Cocker)
TTITLE7=I Feel Good (Robert Palmer)
TTITLE8=Out of Sight (Robert Palmer)
TTITLE9=Try Me (Robert Palmer)
TTITLE10=Addicted to Love (Robert Palmer)
TTITLE11=Do Right Women, Do Right Man (Aretha Franklin)
TTITLE12=Jimmy Lee (Aretha Franklin)
TTITLE13=Please, Please, Please (Aretha Franklin)
TTITLE14=Living in America (Everyone)
EXTD=
EXTT0=
EXTT1=
EXTT2=
EXTT3=
EXTT4=
EXTT5=
EXTT6=
EXTT7=
EXTT8=
EXTT9=
EXTT10=
EXTT11=
EXTT12=
EXTT13=
EXTT14=
PLAYORDER=
